<svg width="32" height="32" viewBox="0 0 32 32" fill="none" xmlns="http://www.w3.org/2000/svg">
<path fill-rule="evenodd" clip-rule="evenodd" d="M16 14.3567C19.3161 14.4721 22.1041 11.9361 22.2392 8.6816C22.1056 5.42601 19.3171 2.8884 16 3.00378C12.6826 2.88839 9.89373 5.4258 9.7594 8.6816C9.89447 11.9366 12.6834 14.4728 16 14.3567ZM16 6.33074C17.3736 6.28272 18.5285 7.33344 18.5839 8.6816C18.5278 10.0292 17.3731 11.0791 16 11.0311C14.6264 11.0791 13.4715 10.0284 13.4161 8.68022C13.4722 7.33261 14.6269 6.28271 16 6.33074ZM22.5491 23.339C22.5499 22.8908 22.3562 22.4635 22.0165 22.164L22.0109 22.1612L18.5237 18.9869C19.7983 18.7246 21.022 18.2637 22.1482 17.6217C22.5513 17.408 22.8437 17.0369 22.9531 16.6001C23.0624 16.1633 22.9787 15.7015 22.7224 15.3286C22.1458 14.5414 21.0535 14.3145 20.2015 14.8048H20.1987C17.5965 16.2663 14.4007 16.2663 11.7985 14.8048C10.9474 14.3159 9.85718 14.5421 9.28043 15.3272L9.27763 15.3286C9.02135 15.7015 8.93755 16.1633 9.04693 16.6001C9.1563 17.0369 9.44866 17.408 9.85183 17.6217C10.9773 18.2628 12.2 18.7232 13.4735 18.9855L9.98628 22.1612C9.6459 22.4606 9.4514 22.888 9.4514 23.3367C9.4514 23.7853 9.6459 24.2127 9.98628 24.5121C10.7212 25.1612 11.8367 25.1612 12.5716 24.5121L15.9986 21.3941L19.4284 24.5135C20.1624 25.1622 21.2769 25.1622 22.0109 24.5135L22.0123 24.5121C22.3531 24.2138 22.5483 23.7872 22.5491 23.339Z" fill="#C69668"/>
</svg>
