<svg width="32" height="32" viewBox="0 0 32 32" fill="none" xmlns="http://www.w3.org/2000/svg">
<path fill-rule="evenodd" clip-rule="evenodd" d="M10.4838 6H22.5162C24.4396 6.00152 25.9985 7.56037 26 9.48377V21.5148C25.9977 23.4387 24.4387 24.9977 22.5148 25H10.4838C8.56014 24.9977 7.00152 23.4385 7 21.5148V9.48377C7.00076 7.56005 8.56005 6.00076 10.4838 6ZM10.2451 15.4984C10.2446 18.9523 13.044 21.7528 16.4979 21.7535C19.9504 21.749 22.7482 18.9518 22.7535 15.4993C22.7535 12.0454 19.9537 9.24533 16.4998 9.24508C13.0458 9.24483 10.2456 12.0445 10.2451 15.4984ZM22.955 10.5365C22.1374 10.5357 21.4752 9.8723 21.4759 9.05468C21.4767 8.23706 22.1401 7.57487 22.9577 7.57563C23.7754 7.57639 24.4375 8.23982 24.4368 9.05744C24.4368 9.87506 23.774 10.5379 22.9564 10.5379L22.955 10.5365ZM16.5021 19.1142C18.497 19.1134 20.1135 17.4956 20.1128 15.5007C20.1097 13.5067 18.4933 11.8915 16.4993 11.89C14.5044 11.8907 12.8878 13.5086 12.8886 15.5034C12.8894 17.4983 14.5072 19.1149 16.5021 19.1142Z" fill="#C69668"/>
</svg>
