<svg width="32" height="32" viewBox="0 0 32 32" fill="none" xmlns="http://www.w3.org/2000/svg">
<path d="M13.2098 18.9755C13.2098 17.0971 13.2032 15.2188 13.2165 13.3404C13.2192 13.0229 13.138 12.923 12.8562 12.9364C12.3336 12.9603 11.8098 12.9335 11.2873 12.9469C11.0759 12.9528 10.9974 12.8872 11.0001 12.6368C11.0107 11.4641 11.0107 10.2914 11.0001 9.11864C11.0001 8.89353 11.0599 8.819 11.2633 8.82347C11.7978 8.83838 12.3336 8.80856 12.8668 8.83689C13.1766 8.85328 13.2404 8.73104 13.2338 8.40904C13.216 7.51658 13.216 6.62362 13.2338 5.73017C13.2346 4.65657 13.5355 3.61026 14.094 2.73824C14.7904 1.67641 15.8942 1.04713 17.0696 1.04176C18.3035 0.982139 19.5414 1.01493 20.7765 1.00002C20.9494 0.998537 20.9999 1.06711 20.9999 1.25345C20.9946 2.44009 20.9946 3.62622 20.9999 4.81187C21.0026 5.02355 20.9414 5.08765 20.7566 5.08467C20.1623 5.07424 19.5679 5.07871 18.9736 5.0802C18.6358 5.03573 18.2973 5.15736 18.0455 5.41372C17.7936 5.67008 17.6531 6.0361 17.66 6.4174C17.6201 7.12103 17.6493 7.82914 17.6334 8.53426C17.6294 8.78769 17.7624 8.7698 17.9099 8.7698C18.8141 8.76831 19.7182 8.77875 20.6197 8.76235C20.8856 8.75639 20.972 8.82496 20.9427 9.13802C20.8294 10.3168 20.7288 11.497 20.6409 12.6785C20.621 12.9439 20.512 12.9946 20.2979 12.9916C19.5853 12.9814 18.8726 12.9799 18.1599 12.9871C17.648 12.9916 17.6972 12.9036 17.6972 13.4895C17.6946 17.1672 17.6906 20.8449 17.7052 24.521C17.7052 24.9101 17.6174 25.007 17.2744 24.9996C16.0512 24.9747 14.8271 24.9747 13.6021 24.9996C13.2577 25.0085 13.2005 24.8773 13.2032 24.533C13.2165 22.68 13.2098 20.8285 13.2098 18.9755Z" fill="#C69668"/>
</svg>
