<svg width="32" height="32" viewBox="0 0 32 32" fill="none" xmlns="http://www.w3.org/2000/svg">
<path d="M11.4 24.3647C20.5 24.3647 25.4 16.8647 25.4 10.3647V9.76466C26.4 9.06466 27.2 8.16466 27.9 7.26466C27 7.66466 26 7.96466 25.1 8.06466C26.1 7.46466 26.9 6.46466 27.3 5.36466C26.3 5.96466 25.3 6.36466 24.2 6.56466C22.3 4.56466 19.2 4.46466 17.2 6.36466C15.9 7.56466 15.4 9.36466 15.8 11.0647C11.8 10.6647 8.1 8.86466 5.6 5.76466C4.3 7.96466 4.9 10.8647 7.1 12.3647C6.3 12.2647 5.5 12.0647 4.9 11.7647V11.8647C4.9 14.1647 6.6 16.2647 8.9 16.6647C8.2 16.8647 7.4 16.8647 6.7 16.7647C7.3 18.7647 9.2 20.1647 11.3 20.1647C9.6 21.5647 7.4 22.2647 5.2 22.2647C4.8 22.2647 4.4 22.2647 4 22.1647C6.2 23.5647 8.8 24.3647 11.4 24.3647Z" fill="#C69668"/>
</svg>
