<svg width="32" height="32" viewBox="0 0 32 32" fill="none" xmlns="http://www.w3.org/2000/svg">
<path d="M26.8824 23.7456C26.8602 23.6947 26.8354 23.6452 26.8081 23.5971C26.2064 22.6167 25.4697 21.7349 24.622 20.9804L24.5987 20.9559L24.5863 20.9444L24.5753 20.9328H24.5629C24.2388 20.6258 23.9295 20.302 23.6362 19.9626C23.4079 19.7032 23.345 19.3279 23.4754 19.0024C23.7657 18.4484 24.1113 17.9284 24.5065 17.4511C24.8191 17.033 25.067 16.6976 25.2504 16.4448C26.5721 14.6292 27.145 13.4692 26.969 12.9646L26.9002 12.8463C26.8037 12.7447 26.68 12.6764 26.5455 12.6503C26.3056 12.5888 26.0563 12.579 25.8127 12.6214L22.5129 12.6445C22.4377 12.6251 22.3589 12.6271 22.2847 12.6503L22.1362 12.6863L22.0785 12.7151L22.0331 12.7512C21.9843 12.785 21.9415 12.8274 21.9066 12.8766C21.8591 12.9391 21.8206 13.0085 21.7925 13.0828C21.4496 14.0026 21.0396 14.8933 20.5661 15.747C20.2838 16.2372 20.0244 16.6616 19.7879 17.0201C19.6105 17.3011 19.4114 17.5663 19.1926 17.813C19.0566 17.9596 18.911 18.096 18.7567 18.221C18.6266 18.3238 18.5276 18.3671 18.4597 18.3508C18.3945 18.3363 18.3294 18.3209 18.2645 18.3046C18.1562 18.2327 18.0672 18.133 18.006 18.0148C17.9352 17.871 17.8909 17.7145 17.8754 17.5535C17.8525 17.367 17.8387 17.207 17.8342 17.0734C17.8314 16.9389 17.8337 16.7495 17.841 16.5054C17.8479 16.2603 17.852 16.0945 17.852 16.008C17.852 15.7081 17.8575 15.3823 17.8685 15.0305L17.8974 14.1958C17.9047 13.9901 17.9089 13.7729 17.9098 13.5441C17.9132 13.3639 17.8994 13.1837 17.8685 13.0064C17.842 12.8758 17.8019 12.7486 17.7489 12.6272C17.6999 12.5101 17.6184 12.4112 17.5152 12.3432C17.3956 12.2692 17.2657 12.2152 17.1302 12.1832C16.6214 12.077 16.1036 12.0249 15.5848 12.0275C14.6635 11.9471 13.7359 12.0434 12.8474 12.3115C12.6828 12.4016 12.5351 12.5222 12.4116 12.6676C12.2741 12.8406 12.2548 12.9352 12.3538 12.9516C12.7301 12.978 13.0807 13.1612 13.3272 13.4605L13.396 13.6018C13.4715 13.7755 13.5255 13.9587 13.5568 14.1468C13.6134 14.4317 13.6479 14.721 13.66 15.0118C13.6983 15.504 13.6983 15.9987 13.66 16.491C13.6215 16.9014 13.5848 17.2214 13.55 17.4511C13.526 17.6433 13.474 17.8305 13.396 18.0062C13.3554 18.0961 13.3095 18.1833 13.2585 18.2671C13.2437 18.2906 13.2245 18.3108 13.2021 18.3262C13.1033 18.3655 12.9985 18.3856 12.8928 18.3854C12.7504 18.3712 12.6151 18.3135 12.5037 18.2196C12.3285 18.0879 12.1688 17.935 12.028 17.764C11.8219 17.5099 11.6361 17.2384 11.4725 16.9523C11.2663 16.6063 11.0522 16.1959 10.8304 15.7211L10.6476 15.378C10.533 15.1569 10.3767 14.8349 10.1787 14.412C9.97982 13.9911 9.80383 13.5826 9.65076 13.1866C9.5988 13.0337 9.50268 12.9017 9.37578 12.8089L9.31941 12.7743C9.26253 12.7322 9.20058 12.6983 9.13517 12.6733C9.05061 12.6377 8.96253 12.6121 8.87257 12.5969L5.73367 12.6214C5.49577 12.5911 5.25734 12.6735 5.08335 12.8463L5.03522 12.917C5.00842 12.9758 4.99658 13.0408 5.00085 13.1058C5.0055 13.216 5.02877 13.3243 5.0696 13.4259C5.5279 14.5389 6.02607 15.6125 6.56411 16.6467C7.10307 17.6808 7.57054 18.5137 7.96651 19.1451C8.36431 19.7766 8.76945 20.3725 9.18192 20.9328C9.59439 21.4932 9.86708 21.8522 9.99998 22.0098C10.1338 22.1684 10.2392 22.2866 10.3162 22.3645L10.6022 22.6499C10.8542 22.898 11.124 23.1255 11.4093 23.3304C11.7897 23.6116 12.1834 23.8724 12.5889 24.1118C13.0641 24.3863 13.5704 24.597 14.0958 24.7389C14.6395 24.8976 15.204 24.9638 15.7677 24.935H17.0848C17.311 24.9299 17.5274 24.8375 17.6925 24.6755L17.7379 24.6149C17.7769 24.5469 17.8057 24.473 17.8232 24.3958C17.8512 24.2897 17.8651 24.1801 17.8644 24.07C17.8537 23.7624 17.8782 23.4546 17.9373 23.1531C17.9753 22.9395 18.041 22.7324 18.1325 22.5375C18.1982 22.4094 18.2811 22.2919 18.3786 22.1886C18.4363 22.1223 18.5019 22.0642 18.5739 22.0156C18.6032 22.0001 18.6336 21.9866 18.6646 21.9752C18.896 21.9232 19.1371 21.9914 19.3122 22.1583C19.5719 22.3555 19.8066 22.5866 20.0106 22.846C20.2288 23.118 20.4905 23.4236 20.7957 23.7629C21.0378 24.0434 21.3064 24.2974 21.5973 24.5212L21.8269 24.6625C22.0151 24.7727 22.2149 24.8598 22.4222 24.922C22.6276 24.9981 22.8479 25.019 23.0629 24.9826L25.9956 24.935C26.2291 24.948 26.4618 24.8968 26.6706 24.7865C26.803 24.7216 26.906 24.6053 26.958 24.4621C26.9888 24.3297 26.9906 24.1917 26.9635 24.0584C26.9475 23.9513 26.9203 23.8464 26.8824 23.7456Z" fill="#C69668"/>
</svg>
