<svg width="144" height="37" viewBox="0 0 144 37" fill="none" xmlns="http://www.w3.org/2000/svg">
<g clip-path="url(#clip0)">
<path d="M65.149 24.0565C65.149 24.1995 65.0797 24.3265 64.9727 24.406C63.0373 25.9922 60.3104 27.3095 56.92 27.3095C50.7486 27.3095 46.6905 22.9437 46.6905 17.1786C46.6905 11.6933 50.9175 7.04761 56.8637 7.04761C59.9514 7.04761 61.9709 7.81506 63.8204 9.20856C64.1749 9.46487 64.2387 9.96172 63.947 10.2891L62.5374 11.9645C62.383 12.1618 62.1055 12.1872 61.9115 12.0336C60.5002 10.9072 59.0471 10.21 56.7227 10.21C53.0873 10.21 50.3257 13.3723 50.3257 17.1786C50.3257 21.2087 53.0027 24.175 57.0327 24.175C58.8927 24.175 60.5834 23.5875 61.7954 22.6917V19.0256C61.412 19.0256 57.1896 19.0254 57.1896 19.0258C56.9472 19.0258 56.7507 18.8308 56.7507 18.59V16.4668C56.7507 16.226 56.9472 16.031 57.1896 16.031L64.7102 16.0312C64.9528 16.0316 65.149 16.2262 65.149 16.467V24.0565ZM71.299 17.0947V10.9536C71.299 10.713 71.4954 10.5178 71.7379 10.5178H76.3434C78.908 10.5178 80.4297 11.6655 80.4297 13.7642C80.4297 15.8073 78.8515 17.0947 76.3717 17.0947H71.299ZM68.5688 26.9738H70.8604C71.1028 26.9738 71.2992 26.7785 71.2992 26.5379L71.299 20.145H75.5827L80.2751 26.678C80.4092 26.8574 80.6243 26.9738 80.8666 26.9738H83.7209C84.0908 26.9738 84.2893 26.5486 84.0654 26.268L79.246 19.5574C82.0076 18.7739 83.9524 16.8427 83.9524 13.6245C83.9524 9.84635 81.2468 7.38362 76.6252 7.38362L68.5688 7.38343C68.1624 7.38343 67.8327 7.71067 67.8327 8.11443V26.2428C67.8327 26.6465 68.1624 26.9738 68.5688 26.9738ZM95.9979 27.3095C102.057 27.3095 106.34 22.6917 106.34 17.1786C106.34 11.6094 102.113 7.04761 96.0541 7.04761C89.9952 7.04761 85.7119 11.6655 85.7119 17.1786C85.7119 22.7479 89.9388 27.3095 95.9979 27.3095ZM96.0541 24.1472C92.137 24.1472 89.3473 20.9847 89.3473 17.1786C89.3473 13.3165 92.0806 10.2102 95.9979 10.2102C99.915 10.2102 102.705 13.3723 102.705 17.1786C102.705 21.0407 99.9713 24.1472 96.0541 24.1472ZM116.978 27.2815C122.135 27.2815 125.461 24.3431 125.461 18.4941V8.11462C125.461 7.71086 125.131 7.38362 124.725 7.38362H122.433C122.191 7.38362 121.994 7.5785 121.994 7.81943L121.995 18.662C121.995 22.2718 120.106 24.1192 117.035 24.1192C113.935 24.1192 112.047 22.1602 112.047 18.5219V7.81943C112.047 7.5785 111.85 7.38362 111.608 7.38362H109.316C108.91 7.38362 108.58 7.71086 108.58 8.11462V18.662C108.58 24.3431 111.849 27.2815 116.978 27.2815ZM131.787 17.5705V10.9536C131.787 10.713 131.984 10.5178 132.226 10.5178H135.817C138.41 10.5178 140.072 11.7213 140.072 14.0163C140.072 16.1151 138.438 17.5705 135.817 17.5705H131.787ZM129.057 26.9738H131.349C131.591 26.9738 131.787 26.7785 131.787 26.5379V20.6769H135.704C140.044 20.6769 143.595 18.382 143.595 13.9882C143.595 9.98625 140.692 7.38362 136.099 7.38362H129.057C128.65 7.38362 128.321 7.71086 128.321 8.11462V26.2428C128.321 26.6465 128.65 26.9738 129.057 26.9738Z" fill="#48544E"/>
<path d="M28.8152 28.4247C28.5727 28.4247 28.3763 28.2292 28.3763 27.9877V9.01111C28.3764 8.76965 28.5727 8.57412 28.8152 8.57412H32.0341C32.4381 8.57412 32.7655 8.9002 32.7657 9.30239V27.6964C32.7657 28.0988 32.4381 28.4247 32.0341 28.4247H28.8152ZM13.796 24.1594C13.796 24.4007 13.9923 24.5962 14.2349 24.5962H18.3976C20.3351 24.5962 21.5038 23.916 21.5038 22.3844C21.5038 21.0522 20.5062 20.2294 18.255 20.2294H13.796V24.1594ZM13.796 16.5996H17.2293C19.1666 16.5996 20.3927 15.9757 20.3927 14.4446C20.3927 13.1397 19.3662 12.4026 17.5141 12.4026H14.2349C13.9923 12.4026 13.7961 12.5981 13.796 12.8395V16.5996ZM10.2516 28.4247C9.84765 28.4247 9.52005 28.0988 9.52005 27.6964V9.30258C9.52005 8.90039 9.84765 8.57412 10.2516 8.57412H18.1696C21.4964 8.57412 24.7537 10.0408 24.7537 13.7637C24.7537 16.0042 23.556 17.2516 22.1311 18.0457C24.4393 18.9252 25.865 20.2574 25.865 22.9804C25.865 26.6101 22.901 28.4247 18.3976 28.4247H10.2516ZM41.18 18.4998C41.18 7.13548 31.5975 0.91141 21.1427 0.91141C10.6878 0.91141 1.10552 7.13548 1.10552 18.4998C1.10552 29.8637 10.6882 36.0881 21.1429 36.0881C31.5975 36.0881 41.18 29.8637 41.18 18.4998ZM42.2857 18.5001C42.2857 30.8333 31.7143 37 21.1429 37C10.5714 37 0 30.8333 0 18.5001C0 6.16681 10.5714 0 21.1429 0C31.7143 -8.12181e-07 42.2857 6.16681 42.2857 18.5001ZM40.2561 18.4998C40.2561 7.66735 31.0751 1.83115 21.1427 1.83115C11.2103 1.83115 2.02951 7.66735 2.02951 18.4998C2.02951 29.3323 11.2105 35.1682 21.1429 35.1682C31.0753 35.1682 40.2561 29.3322 40.2561 18.4998Z" fill="#48544E"/>
</g>
<defs>
<clipPath id="clip0">
<rect width="144" height="37" fill="white"/>
</clipPath>
</defs>
</svg>
