<svg width="20" height="20" viewBox="0 0 20 20" fill="none" xmlns="http://www.w3.org/2000/svg">
<path fill-rule="evenodd" clip-rule="evenodd" d="M9.99959 1C12.3959 1.00096 14.6476 1.92931 16.3401 3.61392C18.0562 5.32216 19.0007 7.56296 19 9.92351C18.9989 12.3008 18.0577 14.54 16.3495 16.2284C14.6455 17.9128 12.3903 18.8404 9.99972 18.8404H9.99615C8.59185 18.8399 7.1995 18.5086 5.95163 17.8804L1.02461 19L2.09625 14.1337C1.37843 12.8096 1.00027 11.359 1 9.92104V9.91939V9.91664C1.0022 7.54085 1.94298 5.29881 3.6497 3.61172C5.3534 1.92752 7.60859 1 9.99959 1ZM9.99645 17.4355H9.99961C14.1853 17.4355 17.592 14.0655 17.5937 9.92308C17.5943 7.93881 16.7967 6.05164 15.3477 4.60913C13.9203 3.1886 12.0208 2.40569 9.99933 2.40486C5.81488 2.40486 2.40886 5.77808 2.40625 9.91951C2.40625 11.199 2.76667 12.4962 3.44876 13.6713L3.58594 13.9077L2.87431 17.1388L6.15056 16.3943L6.38355 16.5206C7.48613 17.1187 8.73552 17.435 9.99645 17.4355Z" fill="white"/>
<path d="M7.50958 5.86475H7.11963C6.9839 5.86475 6.76352 5.91649 6.5771 6.12303C6.39055 6.32971 5.86487 6.82925 5.86487 7.84523C5.86487 8.8612 6.59408 9.84286 6.69572 9.98078C6.79748 10.1186 8.10333 12.27 10.1716 13.0977C11.8904 13.7856 12.2403 13.6487 12.6133 13.6143C12.9864 13.58 13.8172 13.1149 13.9868 12.6328C14.1564 12.1507 14.1564 11.7373 14.1055 11.651C14.0546 11.5649 13.9189 11.5133 13.7155 11.4101C13.5119 11.3068 12.5146 10.7988 12.3281 10.7298C12.1415 10.661 12.0059 10.6266 11.8702 10.8334C11.7345 11.0398 11.3349 11.5173 11.2161 11.6551C11.0975 11.793 10.9788 11.8103 10.7752 11.707C10.5717 11.6034 9.92305 11.3815 9.14573 10.6782C8.5407 10.1307 8.12086 9.43268 8.00211 9.226C7.88349 9.01946 7.98947 8.90768 8.09151 8.80462C8.18295 8.7122 8.30646 8.58576 8.40823 8.46527C8.50986 8.34463 8.5388 8.25859 8.60673 8.1208C8.67453 7.98301 8.64056 7.86238 8.58975 7.75918C8.5388 7.65584 8.14831 6.63475 7.96733 6.22637H7.96746C7.81502 5.88245 7.65455 5.87083 7.50958 5.86475V5.86475Z" fill="white"/>
</svg>
