<svg width="144" height="37" viewBox="0 0 144 37" fill="none" xmlns="http://www.w3.org/2000/svg">
<g clip-path="url(#clip0)">
<path d="M67.3338 24.4312C67.3338 24.5442 67.2687 24.6444 67.1682 24.7072C65.3508 25.9598 62.79 27 59.6062 27C53.8108 27 50 23.5525 50 19C50 14.6685 53.9694 11 59.5533 11C62.4529 11 64.3493 11.606 66.0862 12.7064C66.4191 12.9088 66.479 13.3012 66.205 13.5597L64.8813 14.8827C64.7363 15.0385 64.4757 15.0585 64.2936 14.9372C62.9683 14.0478 61.6037 13.4972 59.4209 13.4972C56.007 13.4972 53.4137 15.9944 53.4137 19C53.4137 22.1824 55.9276 24.5248 59.712 24.5248C61.4587 24.5248 63.0464 24.0609 64.1845 23.3535V20.4585C63.8245 20.4585 59.8594 20.4584 59.8594 20.4587C59.6318 20.4587 59.4472 20.3047 59.4472 20.1146V18.438C59.4472 18.2478 59.6318 18.0938 59.8594 18.0938L66.9217 18.094C67.1496 18.0943 67.3338 18.248 67.3338 18.4381V24.4312ZM73.1091 18.9338V14.0844C73.1091 13.8944 73.2935 13.7403 73.5212 13.7403H77.8461C80.2545 13.7403 81.6834 14.6466 81.6834 16.3038C81.6834 17.9172 80.2014 18.9338 77.8727 18.9338H73.1091ZM70.5452 26.7349H72.6972C72.9248 26.7349 73.1093 26.5807 73.1093 26.3907L73.1091 21.3425H77.1318L81.5383 26.5013C81.6642 26.643 81.8662 26.7349 82.0937 26.7349H84.7741C85.1215 26.7349 85.3079 26.3991 85.0976 26.1776L80.5719 20.8785C83.1652 20.2598 84.9915 18.7348 84.9915 16.1935C84.9915 13.2101 82.4507 11.2653 78.1107 11.2653L70.5452 11.2652C70.1636 11.2652 69.854 11.5236 69.854 11.8424V26.1577C69.854 26.4765 70.1636 26.7349 70.5452 26.7349ZM96.303 27C101.993 27 106.015 23.3535 106.015 19C106.015 14.6023 102.046 11 96.3558 11C90.6661 11 86.6438 14.6466 86.6438 19C86.6438 23.3979 90.6131 27 96.303 27ZM96.3558 24.5029C92.6774 24.5029 90.0577 22.0056 90.0577 19C90.0577 15.9503 92.6244 13.4974 96.303 13.4974C99.9815 13.4974 102.601 15.9944 102.601 19C102.601 22.0498 100.034 24.5029 96.3558 24.5029ZM116.005 26.9779C120.848 26.9779 123.971 24.6576 123.971 20.0388V11.8426C123.971 11.5237 123.661 11.2653 123.28 11.2653H121.127C120.9 11.2653 120.715 11.4192 120.715 11.6095L120.716 20.1714C120.716 23.0219 118.942 24.4807 116.058 24.4807C113.147 24.4807 111.374 22.9338 111.374 20.0608V11.6095C111.374 11.4192 111.189 11.2653 110.962 11.2653H108.81C108.428 11.2653 108.119 11.5237 108.119 11.8426V20.1714C108.119 24.6576 111.188 26.9779 116.005 26.9779ZM129.911 19.3095V14.0844C129.911 13.8944 130.096 13.7403 130.324 13.7403H133.696C136.131 13.7403 137.692 14.6906 137.692 16.5029C137.692 18.1602 136.157 19.3095 133.696 19.3095H129.911ZM127.348 26.7349H129.5C129.727 26.7349 129.911 26.5807 129.911 26.3907V21.7625H133.59C137.665 21.7625 141 19.9503 141 16.4807C141 13.3205 138.274 11.2653 133.961 11.2653H127.348C126.966 11.2653 126.657 11.5237 126.657 11.8426V26.1577C126.657 26.4765 126.966 26.7349 127.348 26.7349Z" fill="#1D2823"/>
<path d="M31.8152 28.4247C31.5727 28.4247 6 12.5753 13.5 14.5L17.5 15C17.5001 14.7585 26.2575 8.57412 26.5 8.57412H31.8152C32.2192 8.57412 24.9998 18.5978 25 19L32.5 13.5C32.5 13.5 35.4381 28.4247 35.0341 28.4247H31.8152ZM44.18 18.4998C44.18 7.13549 34.5975 0.911411 24.1427 0.911411C13.6878 0.911411 4.10552 7.13549 4.10552 18.4998C4.10552 29.8637 13.6882 36.0881 24.1429 36.0881C34.5975 36.0881 44.18 29.8637 44.18 18.4998ZM45.2857 18.5001C45.2857 30.8333 34.7143 37 24.1429 37C13.5714 37 3 30.8333 3 18.5001C3 6.16681 13.5714 0 24.1429 0C34.7143 -8.12181e-07 45.2857 6.16681 45.2857 18.5001ZM43 18.5001C43 7.66765 34.0753 2.5 24.1429 2.5C14.2105 2.5 5.5 7.66736 5.5 18.4998C5.5 29.3323 14.2103 34.5 24.1427 34.5C34.0751 34.5 43 29.3325 43 18.5001Z" fill="#1D2823"/>
</g>
<defs>
<clipPath id="clip0">
<rect width="144" height="37" fill="white"/>
</clipPath>
</defs>
</svg>
