<svg xmlns="http://www.w3.org/2000/svg" width="379" height="121" viewBox="0 0 379 121">
    <defs>
        <filter id="gv36zl308a">
            <feColorMatrix in="SourceGraphic" values="0 0 0 0 0.152941 0 0 0 0 0.160784 0 0 0 0 0.156863 0 0 0 1.000000 0"/>
        </filter>
        <filter id="29cfnx4ucb">
            <feColorMatrix in="SourceGraphic" values="0 0 0 0 0.152941 0 0 0 0 0.160784 0 0 0 0 0.156863 0 0 0 1.000000 0"/>
        </filter>
        <filter id="bei130e6ec">
            <feColorMatrix in="SourceGraphic" values="0 0 0 0 0.152941 0 0 0 0 0.160784 0 0 0 0 0.156863 0 0 0 1.000000 0"/>
        </filter>
        <filter id="7oyibxxzrd">
            <feColorMatrix in="SourceGraphic" values="0 0 0 0 0.152941 0 0 0 0 0.160784 0 0 0 0 0.156863 0 0 0 1.000000 0"/>
        </filter>
        <linearGradient id="9oladg57ie" x1="27.768%" x2="37.684%" y1="48.745%" y2="50.949%">
            <stop offset="0%" stop-color="#CCAF75"/>
            <stop offset="100%" stop-color="#CCA463"/>
        </linearGradient>
    </defs>
    <g fill="none" fill-rule="evenodd">
        <g>
            <g>
                <path fill="#FFF" d="M139.432 87v21.045c0 6.406 4.774 10.692 11.958 10.692 7.089 0 11.863-4.286 11.863-10.692V87h1.929v20.95c0 7.848-5.883 13.05-14.66 13.05-8.872 0-14.706-5.202-14.706-13.05V87h3.616zm-97.238 0v20.416L60.982 87h2.593l-12.25 13.28 14.748 19.801h-4.227L48.92 102.925l-6.726 7.278v9.878h-3.652V87h3.652zm-24.597 0l15.44 33.081H29.25l-3.631-7.754c.714-.326 1.361-.783 1.889-1.39l-.012-.028c-.52.563-1.156.99-1.856 1.296-.081.036-.152.092-.235.125-2.416.925-5.547.243-9.243-2.019-2.884-1.761-5.38-2.316-7.421-1.646-.72.236-1.291.607-1.759 1.001-.67.564-1.1 1.18-1.314 1.533l-.169.384c.006-.015.469-1.02 1.475-1.902l-.262.57-4.601 9.83H0L15.486 87h2.11zm217.463 0l13.58 28.968L262.22 87h2.072l-15.459 33.081h-2.12L231.254 87h3.806zm38.407 0v33.081h-3.67V87h3.67zM115.79 87l15.439 33.081h-3.787l-3.631-7.754c.714-.326 1.362-.783 1.89-1.39l-.013-.028c-.52.563-1.157.99-1.857 1.296-.08.036-.151.092-.234.125-2.416.925-5.547.243-9.243-2.019-2.883-1.761-5.38-2.316-7.422-1.646-.717.236-1.29.607-1.758 1.001-.674.567-1.104 1.187-1.317 1.539l-.166.378c.008-.015.47-1.02 1.475-1.902l-.26.57-4.603 9.83h-2.11L113.678 87h2.11zm109.96 0v33.081h-3.672V87h3.671zm-24.627 0c7.684 0 12.808 3.829 12.808 9.547 0 4.678-3.368 7.844-8.728 8.884l9.534 14.65h-3.984l-9.345-14.273h-9.679v14.273h-3.605V87h12.999zm126.64 0c7.683 0 12.807 3.829 12.807 9.547 0 4.678-3.368 7.844-8.728 8.884l9.534 14.65h-3.984l-9.345-14.273h-9.678v14.273h-3.605V87h12.999zm35.799 0L379 120.081h-3.787l-3.665-7.826-.18.075c-2.338.895-5.345.285-8.886-1.805l-.356-.214c-2.884-1.761-5.38-2.316-7.422-1.646-.707.232-1.288.593-1.751.98l-.278.605-4.6 9.831h-2.111L361.45 87h2.11zm-56.14 0v1.748h-21.177v13.517h18.477v1.748h-18.477v14.32h21.177v1.748h-24.777V87h24.777zm-207.394 0v1.748H86.674v31.333h-3.577V88.748H69.743V87h30.284zm13.797 4.16l-7.166 15.316c-.115.033-.234.049-.347.088-.167.058-.332.122-.494.194l-1.31 2.971 1.32-2.868c.08-.034.161-.067.244-.098l.25-.088c.112-.037.23-.053.345-.084.657-.182 1.335-.294 2.042-.294 2.017 0 4.242.738 6.643 2.208 3.129 1.912 5.744 2.557 7.565 1.859l-.023.007-.056-.12-.718-1.465-8.295-17.627zm247.771 0l-7.219 15.427c.674-.193 1.377-.29 2.105-.29 2.016 0 4.24.738 6.641 2.207 3.131 1.913 5.747 2.558 7.567 1.86l-.023.007-.056-.12-.719-1.465-8.296-17.627zm-345.963 0l-7.167 15.316c-.114.033-.234.049-.345.088-.168.058-.332.122-.494.194l-1.31 2.971 1.32-2.868c.08-.034.161-.067.244-.098l.249-.088c.112-.037.23-.053.345-.084.656-.182 1.334-.294 2.043-.294 2.016 0 4.24.738 6.642 2.208 3.13 1.912 5.745 2.557 7.566 1.859l-.023.007-.055-.12-.719-1.465-8.296-17.627zm185.205-2.411h-9.109v15.312h9.11c5.645 0 9.392-2.79 9.392-7.514 0-4.677-3.747-7.798-9.393-7.798zm126.64 0h-9.11v15.312h9.11c5.645 0 9.392-2.79 9.392-7.514 0-4.677-3.747-7.798-9.393-7.798z" transform="translate(-117 -118) translate(117 118)"/>
                <path fill="url(#9oladg57ie)" d="M154.068 57.432c-1.373 1.382-2.876 2.63-4.47 3.761l-.564.096C142.98 62.304 135.704 63 126.333 63l-.946-.002c-5.006-.026-9.388-.258-13.32-.625l-.598-.378c-1.386-.897-2.7-1.889-3.936-2.973 5.22.706 11.321 1.162 18.8 1.162 12.2 0 20.774-1.204 27.735-2.752zm6.516-9.307l-.344.702c-.468.93-.977 1.834-1.527 2.712l-.414.106c-7.752 1.974-17.285 3.68-31.966 3.68l-.853-.002c-9.598-.044-16.958-.826-23.073-1.924l-.45-.637c-.594-.854-1.155-1.733-1.665-2.644 6.657 1.368 14.809 2.393 26.04 2.393 16.282 0 26.109-2.145 34.252-4.386zm2.717-8.438c-.191 1.063-.433 2.106-.72 3.132l-.397.111c-8.485 2.371-18.627 4.72-35.851 4.72l-.794-.002c-12.096-.052-20.645-1.274-27.616-2.828l-.256-.763c-.247-.768-.466-1.547-.66-2.338 7.244 1.719 16.185 3.115 29.326 3.115 18.129 0 28.26-2.657 36.968-5.147zM129.935 0c18.108 0 32.856 14.115 33.83 31.88l.44-.127.436-.125.541-.155c.72-.207 1.437-.412 2.155-.614l1.077-.3c6.113-1.684 12.4-3.065 21.085-3.065l.76.004c10.054.094 16.882 2.056 24.097 4.13l.371.107c8.932 2.565 19.138 5.425 37.939 5.425l.768-.001c18.573-.078 28.641-2.974 37.542-5.531l.54-.155c7.2-2.067 14.098-3.979 24.316-3.979l.76.004c10.053.094 16.882 2.056 24.097 4.13l.366.105C349.988 34.3 360.194 37.16 379 37.16v2.815c-19.465 0-29.896-2.996-39.096-5.641l-.576-.166c-7.27-2.088-13.682-3.858-23.496-3.858l-.768.004c-9.637.092-15.985 1.916-23.301 4.02l-.37.106c-9.114 2.616-19.522 5.535-38.727 5.535l-.774-.002c-17.43-.072-27.52-2.57-36.085-5l-.752-.214-1.484-.425-.576-.166c-7.27-2.088-13.683-3.858-23.496-3.858l-.768.004c-9.636.092-15.984 1.916-23.301 4.02l-.37.106c-9.114 2.616-19.522 5.535-38.727 5.535l-.774-.002c-18.967-.078-29.243-3.03-38.32-5.64l-.577-.165c-7.27-2.088-13.683-3.858-23.496-3.858l-.768.004c-9.637.092-15.986 1.916-23.301 4.02l-.369.106C29.614 37.056 19.205 39.975 0 39.975V37.16l.768-.001c18.572-.078 28.641-2.974 37.54-5.531l.541-.155c7.201-2.067 14.1-3.979 24.317-3.979l.76.004c9.551.09 16.19 1.865 23.016 3.82l1.08.31.847.243c2.27.65 4.637 1.315 7.203 1.945l-.06-.081.004-.558C96.316 14.803 111.388 0 129.936 0z" transform="translate(-117 -118) translate(117 118)"/>
            </g>
        </g>
    </g>
</svg>
