<?xml version="1.0" encoding="utf-8"?>
<svg width="13px" height="21px" viewBox="0 0 13 21" version="1.1" xmlns:xlink="http://www.w3.org/1999/xlink" xmlns="http://www.w3.org/2000/svg">
  <desc>Created with Lunacy</desc>
  <g id="icon-mobile_phone">
    <path d="M11.9764 0.62348C11.561 0.207673 11.0686 0 10.4999 0L2.10012 0C1.53124 0 1.03912 0.207846 0.62348 0.62348C0.207846 1.03888 0 1.53117 0 2.09989L0 18.9C0 19.4687 0.207846 19.9609 0.62348 20.3764C1.03912 20.7921 1.53124 21 2.10012 21L10.4999 21C11.0686 21 11.5611 20.7919 11.9763 20.3764C12.392 19.9609 12.5999 19.4687 12.5999 18.9L12.5999 2.09989C12.5999 1.53117 12.3923 1.03911 11.9764 0.62348ZM7.61278 2.09989L4.98755 2.09989C4.81252 2.09989 4.725 2.18741 4.72506 2.36244C4.72506 2.53742 4.81258 2.62505 4.98755 2.62505L7.61278 2.62505C7.78775 2.62505 7.8751 2.53742 7.8751 2.36244C7.8751 2.18741 7.78781 2.09989 7.61278 2.09989ZM10.8692 16.6443C10.9733 16.5406 11.0252 16.4171 11.0252 16.2751L11.025 16.2751L11.025 4.72517C11.025 4.58301 10.9733 4.45992 10.8692 4.35608C10.7652 4.25213 10.6423 4.20013 10.4999 4.20013L2.10012 4.20013C1.95796 4.20013 1.83499 4.25236 1.73104 4.35608C1.62708 4.45986 1.57519 4.58301 1.57519 4.72517L1.57519 16.2751C1.57519 16.4171 1.62714 16.5406 1.73104 16.6443C1.83493 16.7479 1.95796 16.7998 2.10012 16.7998L10.5003 16.7998C10.6423 16.7998 10.7651 16.7481 10.8692 16.6443ZM7.22725 19.827C6.97005 20.0838 6.66112 20.2124 6.30008 20.2124C5.93921 20.2124 5.63028 20.0838 5.37319 19.827C5.1161 19.5697 4.98755 19.2606 4.98755 18.9C4.98755 18.5389 5.11627 18.23 5.37319 17.9729C5.63011 17.7161 5.93927 17.5871 6.30008 17.5871C6.66118 17.5871 6.9701 17.7161 7.22725 17.9729C7.48429 18.23 7.61272 18.5389 7.61272 18.9C7.61272 19.261 7.48412 19.5698 7.22725 19.827Z" id="Shape" fill="#FFFFFF" fill-rule="evenodd" stroke="none" />
  </g>
</svg>