<svg width="309" height="107" viewBox="0 0 309 107" fill="none" xmlns="http://www.w3.org/2000/svg">
<path fill-rule="evenodd" clip-rule="evenodd" d="M69.6311 73V94.045C69.6311 100.451 74.4011 104.737 81.5792 104.737C88.6623 104.737 93.4323 100.451 93.4323 94.045V73H95.3597V93.95C95.3597 101.798 89.4816 107 80.7119 107C71.8473 107 66.0181 101.798 66.0181 93.95V73H69.6311ZM165.18 73L178.748 101.968L192.317 73H194.387L178.941 106.081H176.823L161.377 73H165.18ZM203.555 73V106.081H199.888V73H203.555ZM46.0087 73L61.4349 106.081H57.6511L54.0231 98.327C54.7365 98.001 55.3839 97.544 55.9115 96.937L55.8985 96.909C55.3789 97.472 54.7425 97.899 54.0431 98.205C53.9631 98.241 53.8922 98.297 53.8092 98.33C51.3953 99.255 48.2669 98.573 44.5739 96.311C41.6933 94.55 39.1984 93.995 37.1581 94.665C36.4417 94.901 35.8692 95.272 35.4016 95.666C34.7281 96.233 34.2985 96.853 34.0857 97.205L33.9198 97.583C33.9278 97.568 34.3894 96.563 35.3936 95.681L35.1338 96.251L30.5346 106.081H28.4264L43.8985 73H46.0067H46.0087ZM155.877 73V106.081H152.208V73H155.876H155.877ZM131.271 73C138.948 73 144.068 76.829 144.068 82.547C144.068 87.225 140.703 90.391 135.347 91.431L144.874 106.081H140.893L131.556 91.808H121.885V106.081H118.283V73H131.271ZM257.806 73C265.482 73 270.602 76.829 270.602 82.547C270.602 87.225 267.237 90.391 261.881 91.431L271.407 106.081H267.427L258.089 91.808H248.419V106.081H244.817V73H257.806ZM293.575 73L309 106.081H305.216L301.554 98.255L301.374 98.33C299.038 99.225 296.034 98.615 292.496 96.525L292.14 96.311C289.258 94.55 286.765 93.995 284.724 94.665C284.018 94.897 283.437 95.258 282.975 95.645L282.697 96.25L278.101 106.081H275.991L291.465 73H293.573H293.575ZM237.481 73V74.748H216.322V88.265H234.784V90.013H216.322V104.333H237.481V106.081H212.725V73H237.481ZM30.2598 73V74.748H16.9169V106.081H13.3429V74.748H0V73H30.2598ZM44.0454 77.16L36.8853 92.476C36.7704 92.509 36.6515 92.525 36.5386 92.564C36.3717 92.622 36.2069 92.686 36.045 92.758L34.7361 95.729L36.055 92.861C36.135 92.827 36.2159 92.794 36.2988 92.763L36.5486 92.675C36.6605 92.638 36.7784 92.622 36.8933 92.591C37.5498 92.409 38.2272 92.297 38.9336 92.297C40.9489 92.297 43.1721 93.035 45.5711 94.505C48.6975 96.417 51.3103 97.062 53.1298 96.364L53.1068 96.371L53.0509 96.251L52.3335 94.786L44.0454 77.159V77.16ZM291.61 77.16L284.397 92.587C285.071 92.394 285.773 92.297 286.501 92.297C288.515 92.297 290.737 93.035 293.136 94.504C296.265 96.417 298.878 97.062 300.697 96.364L300.674 96.371L300.618 96.251L299.9 94.786L291.61 77.159V77.16ZM130.986 74.749H121.885V90.061H130.987C136.627 90.061 140.371 87.271 140.371 82.547C140.371 77.87 136.627 74.749 130.986 74.749ZM257.521 74.749H248.418V90.061H257.521C263.161 90.061 266.905 87.271 266.905 82.547C266.905 77.87 263.161 74.749 257.52 74.749H257.521Z" fill="white"/>
<path fill-rule="evenodd" clip-rule="evenodd" d="M121.703 43.835C120.621 44.8898 119.436 45.8423 118.179 46.7055L117.735 46.7788C112.963 47.5535 107.227 48.0847 99.8405 48.0847L99.0948 48.0832C95.1488 48.0634 91.6946 47.8863 88.5952 47.6062L88.1238 47.3177C87.0313 46.633 85.9955 45.8759 85.0212 45.0485C89.1359 45.5874 93.9451 45.9354 99.8405 45.9354C109.457 45.9354 116.216 45.0165 121.703 43.835V43.835ZM126.839 36.7314L126.568 37.2672C126.199 37.977 125.798 38.667 125.364 39.3371L125.038 39.418C118.928 40.9247 111.413 42.2268 99.8405 42.2268L99.1681 42.2253C91.6024 42.1917 85.8008 41.5948 80.9806 40.7568L80.6258 40.2706C80.1576 39.6188 79.7154 38.9479 79.3134 38.2526C84.5608 39.2967 90.9868 40.079 99.8397 40.079C112.674 40.079 120.42 38.4418 126.839 36.7314V36.7314ZM128.981 30.2911C128.83 31.1024 128.64 31.8985 128.413 32.6816L128.101 32.7663C121.412 34.576 113.418 36.3689 99.8405 36.3689L99.2147 36.3673C89.6798 36.3276 82.941 35.3949 77.446 34.2089L77.2442 33.6265C77.0495 33.0403 76.8769 32.4458 76.7239 31.842C82.4341 33.154 89.482 34.2195 99.8405 34.2195C114.131 34.2195 122.117 32.1916 128.981 30.2911V30.2911ZM102.68 0C116.954 0 128.579 10.7733 129.347 24.3324L129.694 24.2355L130.037 24.1401L130.464 24.0218C131.031 23.8638 131.596 23.7073 132.162 23.5531L133.011 23.3242C137.83 22.0388 142.786 20.9848 149.632 20.9848L150.231 20.9878C158.156 21.0596 163.538 22.5571 169.226 24.1401L169.518 24.2217C176.559 26.1795 184.604 28.3624 199.424 28.3624L200.029 28.3616C214.67 28.3021 222.606 26.0917 229.622 24.1401L230.048 24.0218C235.724 22.4441 241.161 20.9848 249.215 20.9848L249.815 20.9878C257.739 21.0596 263.122 22.5571 268.809 24.1401L269.098 24.2202C276.139 26.1795 284.184 28.3624 299.008 28.3624V30.5109C283.665 30.5109 275.443 28.2242 268.191 26.2054L267.737 26.0787C262.006 24.4851 256.952 23.1341 249.215 23.1341L248.61 23.1372C241.014 23.2074 236.01 24.5995 230.243 26.2054L229.951 26.2863C222.767 28.283 214.563 30.5109 199.424 30.5109L198.814 30.5094C185.075 30.4544 177.121 28.5478 170.37 26.6931L169.777 26.5298L168.607 26.2054L168.153 26.0787C162.422 24.4851 157.367 23.1341 149.632 23.1341L149.027 23.1372C141.431 23.2074 136.427 24.5995 130.659 26.2054L130.368 26.2863C123.183 28.283 114.979 30.5109 99.8405 30.5109L99.2304 30.5094C84.2794 30.4499 76.1793 28.1967 69.0242 26.2047L68.5694 26.0787C62.8387 24.4851 57.7836 23.1341 50.0484 23.1341L49.443 23.1372C41.8465 23.2074 36.8418 24.5995 31.0757 26.2054L30.7848 26.2863C23.6006 28.283 15.3955 30.5109 0.256958 30.5109V28.3624L0.862344 28.3616C15.502 28.3021 23.439 26.0917 30.4537 24.1401L30.8802 24.0218C36.5564 22.4441 41.9947 20.9848 50.0484 20.9848L50.6474 20.9878C58.1761 21.0565 63.4094 22.4113 68.7901 23.9035L69.6414 24.1401L70.3091 24.3255C72.0984 24.8216 73.9642 25.3292 75.9869 25.8101L75.9396 25.7482L75.9428 25.3223C76.1793 11.2984 88.0599 0 102.681 0H102.68Z" fill="url(#paint0_linear)"/>
<defs>
<linearGradient id="paint0_linear" x1="83.2143" y1="23.4389" x2="93.9083" y2="38.2068" gradientUnits="userSpaceOnUse">
<stop stop-color="#CE9523"/>
<stop offset="1" stop-color="#CCA463"/>
</linearGradient>
</defs>
</svg>
