<svg width="43" height="37" viewBox="0 0 43 37" fill="none" xmlns="http://www.w3.org/2000/svg">
<ellipse cx="21" cy="18.5" rx="21" ry="18.5" fill="white"/>
<path d="M28.8152 28.4247C28.5727 28.4247 3 12.5753 10.5 14.5L14.5 15C14.5001 14.7585 23.2575 8.57412 23.5 8.57412H28.8152C29.2192 8.57412 21.9998 18.5978 22 19L29.5 13.5C29.5 13.5 32.4381 28.4247 32.0341 28.4247H28.8152ZM41.18 18.4998C41.18 7.13549 31.5975 0.911411 21.1427 0.911411C10.6878 0.911411 1.10552 7.13549 1.10552 18.4998C1.10552 29.8637 10.6882 36.0881 21.1429 36.0881C31.5975 36.0881 41.18 29.8637 41.18 18.4998ZM42.2857 18.5001C42.2857 30.8333 31.7143 37 21.1429 37C10.5714 37 0 30.8333 0 18.5001C0 6.16681 10.5714 0 21.1429 0C31.7143 -8.12181e-07 42.2857 6.16681 42.2857 18.5001ZM40 18.5001C40 7.66765 31.0753 2.5 21.1429 2.5C11.2105 2.5 2.5 7.66736 2.5 18.4998C2.5 29.3323 11.2103 34.5 21.1427 34.5C31.0751 34.5 40 29.3325 40 18.5001Z" fill="#59615D"/>
</svg>
