<svg xmlns="http://www.w3.org/2000/svg" width="72" height="72" viewBox="0 0 72 72">
  <defs>
    <linearGradient id="icon-umniy-dom-a" x1="30.68%" x2="39.297%" y1="4.586%" y2="84.355%">
      <stop offset="0%" stop-color="#CCAF75"/>
      <stop offset="100%" stop-color="#BD8F47"/>
    </linearGradient>
  </defs>
  <g fill="none" fill-rule="evenodd">
    <rect width="72" height="72"/>
    <path fill="url(#icon-umniy-dom-a)" fill-rule="nonzero" d="M22.9255195,0.106554225 L23.4496205,0.192609965 C23.5376915,0.206958354 23.6265321,0.221004034 23.7167566,0.234288619 C25.5997189,0.383573705 27.3888679,0.783710103 28.8800318,1.89043349 C32.4225876,4.41007635 35.9872845,6.8500117 39.5608377,9.30323164 C41.0929931,10.3527138 41.9343501,11.6678877 41.6376611,13.5764397 L41.6376611,38.6001687 L41.6376611,38.6001687 C41.3144029,41.3855032 39.7379655,42.8423793 36.6249445,43.08593 C34.4140151,43.2432687 32.1951341,43.2551027 29.9826523,43.1213556 C27.272597,42.9752252 24.726385,43.3427653 22.361729,44.7243621 L19.7313812,44.7287903 C18.4472047,43.8431514 17.1940256,42.926515 17.0744643,41.1862345 C16.8524805,39.5147994 17.7521443,37.8954045 19.2885618,37.2008591 C20.997845,36.3595021 22.680559,36.629622 23.8938844,38.0555007 C24.6688185,38.972137 25.4393244,39.1802622 26.5508013,39.1581212 C29.7169606,39.0916983 32.8875481,39.0828419 36.0581356,39.1581212 C37.909121,39.197975 38.7637626,38.4894638 38.7549063,36.5764836 C38.7135764,29.3555739 38.7135764,22.1331881 38.7549063,14.9093263 C38.805101,13.8740008 38.2762292,12.896441 37.3821659,12.3719707 C33.795328,9.92760711 30.2970541,7.3636823 26.6836471,4.95917251 C23.0702401,2.55466271 19.3018463,2.52809354 15.6840112,4.8838932 C13.8042425,6.10386087 11.9510429,7.3658964 10.1033786,8.63734184 L6.40919808,11.1831029 C5.79265395,11.606262 5.17516678,12.0280475 4.55595754,12.44725 C3.72081934,12.9461647 3.23133606,13.8671437 3.28506562,14.8384752 C3.32639544,22.1331881 3.32639544,29.4293772 3.28506562,36.7270423 C3.28506562,38.5647431 4.17070459,39.1935468 5.88884419,39.1581212 C6.62518973,39.1429388 7.36225824,39.1436618 8.09953331,39.149239 L10.3114618,39.1694822 C11.4172195,39.175834 12.52228,39.1682428 13.6249006,39.1094111 C15.0950612,39.0341318 15.2367635,39.5522306 15.2456199,40.8541198 C15.2544763,42.1560091 14.9887846,42.4925519 13.7090363,42.4438418 C11.0521194,42.3464215 8.39520246,42.4438418 5.73828556,42.4084162 C2.63854918,42.3774189 1.14624752,41.199519 0.141047289,38.1174954 C-0.15121357,31.5859081 0.11447812,25.0454643 0.0347706135,18.5094487 L0.0347706135,14.0812539 L0.0347706135,14.0812539 C-0.186639128,12.0221433 0.756566372,10.538698 2.38614207,9.41836471 C6.26081255,6.73045044 10.135483,4.05139257 14.06772,1.447614 C15.6840112,0.415844607 17.5261402,0.415844607 19.2885618,0.00402248735 L21.5026592,0.00402248735 C22.0395778,-0.0153508651 22.4882785,0.0379258541 22.9255195,0.106554225 Z M26.3913863,32.7460951 C26.7729997,33.0082553 27.0565361,33.389939 27.1973177,33.8310028 C27.233061,34.4408315 26.9372301,35.0225563 26.423375,35.3528918 C25.9095198,35.6832272 25.2574794,35.7108483 24.7175286,35.425153 C22.2510241,33.9859897 19.8465143,33.9151385 17.4685737,35.5048605 C16.4633735,36.1735179 15.816857,35.7174138 15.2190507,34.9690489 C14.5459651,34.1276919 14.9577872,33.4767472 15.635301,32.8833691 C18.1416593,30.6692717 23.7610385,30.607277 26.3913863,32.7460951 Z M21.1262626,24.7709162 C24.5409753,24.7514565 27.8669034,25.8580241 30.589315,27.9193627 C31.4483848,28.5525946 32.2985982,29.2478212 31.3686773,30.447862 C30.5804586,31.4574904 29.8010963,31.3600701 28.7427577,30.6427026 C23.4289239,27.0248674 18.5977634,27.0470083 13.4256318,30.6958409 C12.407147,31.4132085 11.6543539,31.6390464 10.7997123,30.5939924 C9.85207856,29.4205208 10.6225845,28.7031532 11.4905107,28.0477804 C14.2439813,25.9056609 17.6377241,24.7515388 21.1262626,24.7709162 Z M21.0642679,18.4873077 C26.1830599,18.4443592 31.1532613,20.206664 35.1016455,23.4645987 C35.9518589,24.1553971 36.726793,24.8727647 35.8145849,26.0240953 C34.9023767,27.175426 34.0433069,26.7458911 33.0159657,25.9753852 C25.4260398,20.1921627 16.636073,20.2408729 9.04171891,26.0993747 C8.00109312,26.9053061 7.16859249,27.2639899 6.26966894,26.0728055 C5.37074539,24.8816211 6.20767421,24.1775381 7.03131845,23.5088807 C10.975247,20.2409918 15.9424416,18.463523 21.0642679,18.4873077 Z" opacity=".9" transform="translate(15 14)"/>
  </g>
</svg>
