<svg xmlns="http://www.w3.org/2000/svg" width="72" height="72" viewBox="0 0 72 72">
  <defs>
    <linearGradient id="icon-chistovaya-otdelka-a" x1="30.573%" x2="39.238%" y1="4.586%" y2="84.355%">
      <stop offset="0%" stop-color="#CCAF75"/>
      <stop offset="100%" stop-color="#BD8F47"/>
    </linearGradient>
  </defs>
  <g fill="none" fill-rule="evenodd">
    <rect width="72" height="72"/>
    <path fill="url(#icon-chistovaya-otdelka-a)" fill-rule="nonzero" d="M41.6505405,6.55844484 L37.2425999,6.55844484 L37.2425999,1.34762565 C37.2425999,0.603376925 36.6384422,0 35.8932303,0 L7.10667969,0 C6.36146786,0 5.75731013,0.603376925 5.75731013,1.34762565 L5.75731013,6.55844484 L2.69873912,6.55844484 L2.69873912,5.03113577 C2.69873912,4.28688704 2.09458139,3.68351011 1.34936956,3.68351011 C0.604157732,3.68351011 0,4.28688704 0,5.03113577 L0,11.4997389 C0,12.2439876 0.604157732,12.8473645 1.34936956,12.8473645 C2.09458139,12.8473645 2.69873912,12.2439876 2.69873912,11.4997389 L2.69873912,9.25369614 L5.75731013,9.25369614 L5.75731013,14.3746736 C5.75731013,15.1189223 6.36146786,15.7222993 7.10667969,15.7222993 L35.8932303,15.7222993 C36.6384422,15.7222993 37.2425999,15.1189223 37.2425999,14.3746736 L37.2425999,9.25369614 L40.3011709,9.25369614 L40.3011709,17.6348496 L21.1726879,22.4108349 C20.5719486,22.5607807 20.1505855,23.099831 20.1505855,23.7182115 L20.1505855,28.1204553 L18.6213,28.1204553 C17.9087429,28.1204553 17.3189784,28.6737904 17.2745392,29.3839891 C16.50234,41.723748 16.5522666,40.9025947 16.5522666,40.9678198 C16.5522666,42.2846298 17.0611589,43.5356756 17.9853871,44.4904234 C19.9330671,46.5028777 23.0663032,46.5035066 25.0146129,44.4904234 C25.9387512,43.5356756 26.4477334,42.2846298 26.4477334,40.9678198 C26.4477334,40.9026846 26.4975701,41.72258 25.7254608,29.3839891 C25.6810216,28.6737904 25.0912571,28.1204553 24.3787,28.1204553 L22.8494145,28.1204553 L22.8494145,24.7704376 L41.9778975,19.9944523 C42.5786369,19.8445065 43,19.3054562 43,18.6870757 L43,7.90607049 C43,7.16182176 42.3957523,6.55844484 41.6505405,6.55844484 Z M34.5438608,13.027048 L8.45604926,13.027048 L8.45604926,2.6952513 L34.5438608,2.6952513 L34.5438608,13.027048 Z M23.7486344,41.0051041 C23.7285738,42.2548922 22.7070111,43.3037043 21.499955,43.3037043 C20.292899,43.3037043 19.2713363,42.2548922 19.2512756,41.0051041 L19.8889877,30.8157066 L23.1109224,30.8157066 L23.7486344,41.0051041 Z" transform="translate(15 13)"/>
  </g>
</svg>
