<svg xmlns="http://www.w3.org/2000/svg" width="72" height="72" viewBox="0 0 72 72">
  <defs>
    <linearGradient id="icon-bassein-a" x1="32.818%" x2="40.481%" y1="4.586%" y2="84.355%">
      <stop offset="0%" stop-color="#CCAF75"/>
      <stop offset="100%" stop-color="#BD8F47"/>
    </linearGradient>
  </defs>
  <g fill="none" fill-rule="evenodd">
    <rect width="72" height="72"/>
    <path fill="url(#icon-bassein-a)" fill-rule="nonzero" d="M32.0826823,47.4714335 C33.8587058,46.4300115 36.0581435,46.4420975 37.8226905,47.5029179 L37.8226905,47.5029179 L39.6224797,48.5849648 C40.4293939,49.0703321 41.4351674,49.0757149 42.2473628,48.5994883 L42.2473628,48.5994883 L44.1726832,47.4701132 L45.714199,50.0983478 L43.7885738,51.2275197 C42.0138706,52.2684339 39.8159563,52.2562464 38.0525265,51.1959338 L38.0525265,51.1959338 L36.2527373,50.1138868 C35.4449091,49.6281134 34.4375106,49.6224259 33.6240964,50.099465 L33.6240964,50.099465 L31.700401,51.2275197 C30.82219,51.7425432 29.8402836,51.9996995 28.8588851,51.999801 C27.8566663,51.999801 26.8550568,51.731676 25.9641505,51.1959338 L25.9641505,51.1959338 L24.1644629,50.1139884 C23.3562284,49.6280118 22.349033,49.6223243 21.5357205,50.0995665 L21.5357205,50.0995665 L19.6121266,51.2276213 C17.8374233,52.268637 15.6394075,52.2564495 13.8760792,51.1960354 L13.8760792,51.1960354 L12.0763916,50.11409 C11.2682587,49.6282149 10.2609618,49.6227305 9.44764919,50.0996681 L9.44764919,50.0996681 L7.52405529,51.2277229 C5.74935202,52.2685354 3.55133622,52.2564495 1.78800796,51.1961369 L1.78800796,51.1961369 L0.000203125016,50.1211993 L1.57025794,47.5099257 L3.35785964,48.5849648 C4.16477377,49.0702305 5.17054729,49.0757149 5.98274267,48.5994883 L5.98274267,48.5994883 L7.90633657,47.4714335 C9.68215703,46.4300115 11.8815947,46.4418943 13.6463448,47.5029179 L13.6463448,47.5029179 L15.4460325,48.5849648 C16.2530482,49.0703321 17.2587201,49.0757149 18.0709155,48.5994883 L18.0709155,48.5994883 L19.9945094,47.4714335 C21.7704314,46.4300115 23.9699707,46.4417928 25.7344161,47.5030194 L25.7344161,47.5030194 L27.5342053,48.5849648 C28.3413226,49.0701289 29.346893,49.0757149 30.1590884,48.5994883 L30.1590884,48.5994883 Z M32.0826823,37.6703468 C33.8587058,36.6289248 36.0581435,36.6409092 37.8226905,37.7018311 L37.8226905,37.7018311 L39.6224797,38.7839797 C40.429597,39.2691438 41.4352689,39.2747297 42.2473628,38.7984015 L42.2473628,38.7984015 L44.1729879,37.669128 L45.7144021,40.297261 L43.7887769,41.426433 C42.0142768,42.467144 39.8163626,42.4552612 38.0528312,41.3949486 L38.0528312,41.3949486 L36.2529404,40.3128001 C35.4446044,39.8266204 34.4375106,39.8213391 33.6242996,40.2982767 L33.6242996,40.2982767 L31.7006041,41.4263314 C30.8222915,41.9413549 29.8404868,42.1986586 28.8589867,42.1986586 C27.856971,42.1986586 26.85526,41.9304877 25.9644552,41.3949486 L25.9644552,41.3949486 L24.1645644,40.3128001 C23.3565331,39.8267219 22.3492362,39.8210344 21.5359236,40.2983782 L21.5359236,40.2983782 L19.6123297,41.426433 C17.8376264,42.467144 15.6397122,42.4552612 13.8762824,41.3949486 L13.8762824,41.3949486 L12.0764932,40.3128001 C11.2683603,39.8267219 10.2610633,39.8212376 9.44775076,40.2982767 L9.44775076,40.2982767 L7.52415685,41.4263314 C5.74935202,42.467144 3.55143778,42.4550581 1.78810952,41.3948471 L1.78810952,41.3948471 L-2.62900812e-13,40.3198079 L1.57015638,37.7087374 L3.35796121,38.7837765 C4.16477377,39.2688391 5.17054729,39.2743235 5.98274267,38.7980969 L5.98274267,38.7980969 L7.90633657,37.6701436 C9.68215703,36.6286201 11.8815947,36.6406045 13.6463448,37.701628 L13.6463448,37.701628 L15.4461341,38.7837765 C16.2529466,39.2690422 17.2587201,39.2746281 18.0709155,38.7981984 L18.0709155,38.7981984 L19.9945094,37.6702452 C21.7704314,36.6287217 23.9699707,36.6406045 25.7344161,37.7018311 L25.7344161,37.7018311 L27.5343069,38.7838781 C28.3411195,39.2690422 29.3469945,39.2746281 30.1590884,38.7983 L30.1590884,38.7983 Z M28.4422757,1.95399252e-13 C31.9227213,1.95399252e-13 34.7539793,2.83146116 34.7539793,6.31170363 L34.7539793,6.31170363 L34.7539793,9.75609453 L31.7071041,9.75609453 L31.7071041,6.31180519 C31.7071041,4.51150817 30.2425727,3.04687524 28.4421742,3.04687524 C26.6417756,3.04687524 25.1771426,4.51130505 25.1770411,6.31170363 L25.1770411,6.31170363 L25.1770411,27.2389631 C25.3667598,27.3259006 25.5530255,27.4232991 25.7344161,27.5323772 L25.7344161,27.5323772 L27.5341038,28.6143226 C28.3411195,29.0994867 29.3466899,29.1050726 30.1589868,28.6287445 L30.1589868,28.6287445 L32.0825807,27.5006897 C33.8588074,26.4590646 36.0581435,26.4712521 37.8226905,27.5323772 L37.8226905,27.5323772 L39.6223782,28.6143226 C40.4293939,29.0995883 41.4352689,29.1050726 42.2472612,28.6287445 L42.2472612,28.6287445 L44.1728864,27.4995725 L45.7144021,30.1278071 L43.7887769,31.2569791 C42.0140737,32.2978932 39.8160579,32.2857057 38.0527296,31.2254947 L38.0527296,31.2254947 L36.2529404,30.1434477 C35.4449091,29.6575727 34.4376121,29.6519868 33.624198,30.1289243 L33.624198,30.1289243 L31.7006041,31.2569791 C30.8222915,31.7720025 29.8403852,32.0292816 28.8589867,32.0292816 C27.8568694,32.0292816 26.8551584,31.7610338 25.9643536,31.2253931 L25.9643536,31.2253931 L24.164666,30.1434477 C23.3566347,29.6574711 22.3493377,29.6518852 21.535822,30.1289243 L21.535822,30.1289243 L19.6123297,31.2569791 C17.8375249,32.2978932 15.6396106,32.2858073 13.8762824,31.2253931 L13.8762824,31.2253931 L12.0765947,30.1434477 C11.2684618,29.6574711 10.2611649,29.6518852 9.44775076,30.1289243 L9.44775076,30.1289243 L7.52415685,31.2569791 C5.74935202,32.2978932 3.55133622,32.2858073 1.78800796,31.2254947 L1.78800796,31.2254947 L0.000203125017,30.1505571 L1.57025794,27.5392835 L3.35806277,28.6141195 C4.16487533,29.0992836 5.17075041,29.1048695 5.98294579,28.6285414 L5.98294579,28.6285414 L6.27696925,28.4560882 L6.27696925,6.31170363 C6.27696925,2.83146116 9.10832885,1.95399252e-13 12.5886729,1.95399252e-13 C16.0690169,1.95399252e-13 18.9004781,2.83146116 18.9004781,6.31170363 L18.9004781,6.31170363 L18.9004781,9.75609453 L15.8536028,9.75609453 L15.8536028,6.31180519 C15.8536028,4.51150817 14.3889699,3.04687524 12.5886729,3.04687524 C10.7883759,3.04687524 9.32374293,4.51140661 9.32374293,6.31170363 L9.32374293,6.31170363 L9.32374293,18.428314 L22.1304705,18.428314 L22.1304705,6.31170363 C22.1304705,2.83146116 24.9618301,1.95399252e-13 28.4422757,1.95399252e-13 Z M22.1304705,21.4751892 L9.32364137,21.4751892 L9.32364137,26.9124397 C10.7688759,26.5330021 12.328876,26.7402912 13.6464464,27.5324788 L13.6464464,27.5324788 L15.4461341,28.6144242 C16.2531497,29.0995883 17.2588217,29.1051742 18.0710171,28.628846 L18.0710171,28.628846 L19.994611,27.5007913 C20.6619782,27.1093694 21.3891658,26.8669397 22.1304705,26.7727912 L22.1304705,26.7727912 L22.1304705,21.4751892 Z" transform="translate(12 9)"/>
  </g>
</svg>
